<svg xmlns="http://www.w3.org/2000/svg" width="21" height="22" fill="none">
  <path fill="#E9E9E9" d="M0 0h21v22H0z"/>
  <g clip-path="url(#a)">
    <path fill="#FAFAFA" d="M-168-23h375v5103h-375z"/>
    <g clip-path="url(#b)">
      <path fill="#FCF1E0" d="M2.588 13.675 9.66 2.24l.42-.442L15.485 5.4l.037 2.175 1.32 2.152-5.828 9.238-8.426-5.291Z"/>
      <path stroke="#FD9222" stroke-linecap="round" stroke-linejoin="round" stroke-width="1.8" d="m14.198 16.171-9.31-5.817m2.568-4.211 9.309 5.817m-9.79 5.513L14.678 4.84m3.157 5.365C15.84 8.96 15.056 7.985 16.34 5.88l-6.317-3.947L2.32 14.565l9.31 5.817 6.203-10.177Z"/>
    </g>
  </g>
  <defs>
    <clipPath id="a">
      <path fill="#fff" d="M-168-23h375v5103h-375z"/>
    </clipPath>
    <clipPath id="b">
      <path fill="#fff" d="M0 .5h21v21H0z"/>
    </clipPath>
  </defs>
</svg>
